HIERARCHY
ROOT Hips
{
	OFFSET 0.000000 83.214638 0.000000
	CHANNELS 6 Xposition Yposition Zposition Xrotation Yrotation Zrotation
	JOINT Pelvis
	{
		OFFSET 0.000000 0.000000 0.000000
		CHANNELS 3 Xrotation Yrotation Zrotation
		JOINT LeftUpLeg
		{
			OFFSET 8.479700 -4.795502 -0.379100
			CHANNELS 3 Xrotation Yrotation Zrotation
			JOINT LeftLeg
			{
				OFFSET 0.024144 -32.555107 0.112900
				CHANNELS 3 Xrotation Yrotation Zrotation
				JOINT LeftFoot
				{
					OFFSET -0.024144 -32.638630 -3.012600
					CHANNELS 3 Xrotation Yrotation Zrotation
					JOINT LeftToeBase
					{
						OFFSET 0.970200 -13.225400 11.864200
						CHANNELS 3 Xrotation Yrotation Zrotation
						End Site
						{
							OFFSET 0.000000 12.319262 0.000000
						}
					}
					JOINT LFootTongue
					{
						OFFSET 1.142400 -1.059800 6.665200
						CHANNELS 3 Xrotation Yrotation Zrotation
						End Site
						{
							OFFSET 0.000000 12.319262 0.000000
						}
					}
				}
				JOINT LeftPantLeg
				{
					OFFSET 0.918482 -16.533964 -2.284700
					CHANNELS 3 Xrotation Yrotation Zrotation
					End Site
					{
						OFFSET 0.350399 24.744368 0.000000
					}
				}
			}
		}
		JOINT RightUpLeg
		{
			OFFSET -8.479700 -4.795502 -0.379100
			CHANNELS 3 Xrotation Yrotation Zrotation
			JOINT RightLeg
			{
				OFFSET -0.023144 -32.555092 0.112900
				CHANNELS 3 Xrotation Yrotation Zrotation
				JOINT RightFoot
				{
					OFFSET 0.023144 -32.638641 -3.012700
					CHANNELS 3 Xrotation Yrotation Zrotation
					JOINT RightToeBase
					{
						OFFSET -0.970200 -13.225400 11.864200
						CHANNELS 3 Xrotation Yrotation Zrotation
						End Site
						{
							OFFSET 0.000000 12.319244 0.000000
						}
					}
					JOINT RFootTongue
					{
						OFFSET -1.142200 -1.059800 6.665200
						CHANNELS 3 Xrotation Yrotation Zrotation
						End Site
						{
							OFFSET 0.000000 12.319243 0.000000
						}
					}
				}
				JOINT RightPantLeg
				{
					OFFSET -0.919482 -16.533978 -2.284800
					CHANNELS 3 Xrotation Yrotation Zrotation
					End Site
					{
						OFFSET -0.350400 24.744419 0.000000
					}
				}
			}
		}
	}
	JOINT Spine
	{
		OFFSET 0.000000 7.722000 1.166200
		CHANNELS 3 Xrotation Yrotation Zrotation
		JOINT Spine1
		{
			OFFSET 0.000000 12.024101 0.248800
			CHANNELS 3 Xrotation Yrotation Zrotation
			JOINT Spine2
			{
				OFFSET 0.000000 11.502998 -0.491200
				CHANNELS 3 Xrotation Yrotation Zrotation
				JOINT Neck
				{
					OFFSET 0.000000 18.430702 -3.123100
					CHANNELS 3 Xrotation Yrotation Zrotation
					JOINT Head
					{
						OFFSET 0.000000 9.051102 1.034000
						CHANNELS 3 Xrotation Yrotation Zrotation
						JOINT HairB
						{
							OFFSET 0.208400 24.786102 24.822300
							CHANNELS 3 Xrotation Yrotation Zrotation
							End Site
							{
								OFFSET 0.000000 32.263779 0.000000
							}
						}
						JOINT HairA
						{
							OFFSET -7.081100 24.428299 23.196600
							CHANNELS 3 Xrotation Yrotation Zrotation
							End Site
							{
								OFFSET 0.000000 32.263779 0.000000
							}
						}
						JOINT Hat
						{
							OFFSET 16.728800 15.048294 -15.439601
							CHANNELS 3 Xrotation Yrotation Zrotation
							End Site
							{
								OFFSET 0.000000 32.263779 0.000000
							}
						}
					}
				}
				JOINT LeftShoulder
				{
					OFFSET 6.197800 13.665199 -4.064700
					CHANNELS 3 Xrotation Yrotation Zrotation
					JOINT LeftArm
					{
						OFFSET 7.778100 -0.187103 -1.709300
						CHANNELS 3 Xrotation Yrotation Zrotation
						JOINT LeftForeArm
						{
							OFFSET 22.049376 0.000000 0.000000
							CHANNELS 3 Xrotation Yrotation Zrotation
							JOINT LeftHand
							{
								OFFSET 23.009392 0.000000 0.000000
								CHANNELS 3 Xrotation Yrotation Zrotation
								JOINT LeftHandThumb1
								{
									OFFSET 3.507191 -2.063065 3.133727
									CHANNELS 3 Xrotation Yrotation Zrotation
									JOINT LeftHandThumb2
									{
										OFFSET 3.101337 -1.790558 1.790558
										CHANNELS 3 Xrotation Yrotation Zrotation
										JOINT LeftHandThumb3
										{
											OFFSET 3.058640 -1.765907 1.765906
											CHANNELS 3 Xrotation Yrotation Zrotation
											End Site
											{
												OFFSET -0.415260 3.926476 -0.049563
											}
										}
									}
								}
								JOINT LeftHandIndex1
								{
									OFFSET 11.334419 -0.901459 3.706815
									CHANNELS 3 Xrotation Yrotation Zrotation
									JOINT LeftHandIndex2
									{
										OFFSET 3.283112 0.000000 0.000000
										CHANNELS 3 Xrotation Yrotation Zrotation
										JOINT LeftHandIndex3
										{
											OFFSET 3.323853 0.000000 0.000000
											CHANNELS 3 Xrotation Yrotation Zrotation
											End Site
											{
												OFFSET -1.135597 3.097809 0.402452
											}
										}
									}
								}
								JOINT LeftHandMiddle1
								{
									OFFSET 11.335861 0.000000 0.000000
									CHANNELS 3 Xrotation Yrotation Zrotation
									JOINT LeftHandMiddle2
									{
										OFFSET 3.410492 0.000000 0.000000
										CHANNELS 3 Xrotation Yrotation Zrotation
										JOINT LeftHandMiddle3
										{
											OFFSET 3.312172 0.000000 0.000000
											CHANNELS 3 Xrotation Yrotation Zrotation
											End Site
											{
												OFFSET -1.150200 3.080154 0.400270
											}
										}
									}
								}
								JOINT LeftHandRing1
								{
									OFFSET 11.514786 -0.013176 -3.003090
									CHANNELS 3 Xrotation Yrotation Zrotation
									JOINT LeftHandRing2
									{
										OFFSET 3.053307 0.000000 0.000000
										CHANNELS 3 Xrotation Yrotation Zrotation
										JOINT LeftHandRing3
										{
											OFFSET 3.295807 0.000000 0.000000
											CHANNELS 3 Xrotation Yrotation Zrotation
											End Site
											{
												OFFSET -1.281006 3.013344 0.375733
											}
										}
									}
								}
								JOINT LeftHandPinky1
								{
									OFFSET 10.518692 -0.960396 -5.730441
									CHANNELS 3 Xrotation Yrotation Zrotation
									JOINT LeftHandPinky2
									{
										OFFSET 2.861649 0.000000 0.000000
										CHANNELS 3 Xrotation Yrotation Zrotation
										JOINT LeftHandPinky3
										{
											OFFSET 2.863380 0.000000 0.000000
											CHANNELS 3 Xrotation Yrotation Zrotation
											End Site
											{
												OFFSET -0.843597 2.711159 0.369971
											}
										}
									}
								}
							}
							JOINT LSleeve
							{
								OFFSET 6.676277 -0.344902 -1.011730
								CHANNELS 3 Xrotation Yrotation Zrotation
								End Site
								{
									OFFSET 0.000000 14.885353 0.000000
								}
							}
						}
					}
				}
				JOINT RightShoulder
				{
					OFFSET -6.197800 13.665199 -4.064700
					CHANNELS 3 Xrotation Yrotation Zrotation
					JOINT RightArm
					{
						OFFSET -7.778100 -0.187103 -1.709300
						CHANNELS 3 Xrotation Yrotation Zrotation
						JOINT RightForeArm
						{
							OFFSET -22.049376 0.000000 0.000000
							CHANNELS 3 Xrotation Yrotation Zrotation
							JOINT RightHand
							{
								OFFSET -23.009392 0.000000 0.000000
								CHANNELS 3 Xrotation Yrotation Zrotation
								JOINT RightHandThumb1
								{
									OFFSET -3.507191 -2.063065 3.133727
									CHANNELS 3 Xrotation Yrotation Zrotation
									JOINT RightHandThumb2
									{
										OFFSET -3.101337 -1.790558 1.790558
										CHANNELS 3 Xrotation Yrotation Zrotation
										JOINT RightHandThumb3
										{
											OFFSET -3.058640 -1.765907 1.765906
											CHANNELS 3 Xrotation Yrotation Zrotation
											End Site
											{
												OFFSET 0.415260 3.926476 -0.049563
											}
										}
									}
								}
								JOINT RightHandIndex1
								{
									OFFSET -11.334419 -0.901459 3.706815
									CHANNELS 3 Xrotation Yrotation Zrotation
									JOINT RightHandIndex2
									{
										OFFSET -3.283112 0.000000 0.000000
										CHANNELS 3 Xrotation Yrotation Zrotation
										JOINT RightHandIndex3
										{
											OFFSET -3.323853 0.000000 0.000000
											CHANNELS 3 Xrotation Yrotation Zrotation
											End Site
											{
												OFFSET 1.135597 3.097809 0.402452
											}
										}
									}
								}
								JOINT RightHandMiddle1
								{
									OFFSET -11.335861 0.000000 0.000000
									CHANNELS 3 Xrotation Yrotation Zrotation
									JOINT RightHandMiddle2
									{
										OFFSET -3.410492 0.000000 0.000000
										CHANNELS 3 Xrotation Yrotation Zrotation
										JOINT RightHandMiddle3
										{
											OFFSET -3.312172 0.000000 0.000000
											CHANNELS 3 Xrotation Yrotation Zrotation
											End Site
											{
												OFFSET 1.150200 3.080154 0.400270
											}
										}
									}
								}
								JOINT RightHandRing1
								{
									OFFSET -11.514786 -0.013176 -3.003090
									CHANNELS 3 Xrotation Yrotation Zrotation
									JOINT RightHandRing2
									{
										OFFSET -3.053307 0.000000 0.000000
										CHANNELS 3 Xrotation Yrotation Zrotation
										JOINT RightHandRing3
										{
											OFFSET -3.295807 0.000000 0.000000
											CHANNELS 3 Xrotation Yrotation Zrotation
											End Site
											{
												OFFSET 1.281006 3.013344 0.375733
											}
										}
									}
								}
								JOINT RightHandPinky1
								{
									OFFSET -10.518692 -0.960396 -5.730441
									CHANNELS 3 Xrotation Yrotation Zrotation
									JOINT RightHandPinky2
									{
										OFFSET -2.861649 0.000000 0.000000
										CHANNELS 3 Xrotation Yrotation Zrotation
										JOINT RightHandPinky3
										{
											OFFSET -2.863380 0.000000 0.000000
											CHANNELS 3 Xrotation Yrotation Zrotation
											End Site
											{
												OFFSET 0.843597 2.711159 0.369971
											}
										}
									}
								}
							}
							JOINT RSleeve
							{
								OFFSET -6.676277 -0.344902 -1.011730
								CHANNELS 3 Xrotation Yrotation Zrotation
								End Site
								{
									OFFSET 0.000000 14.885353 0.000000
								}
							}
						}
					}
				}
				JOINT Backpack
				{
					OFFSET 0.000000 -2.471497 36.677502
					CHANNELS 3 Xrotation Yrotation Zrotation
					End Site
					{
						OFFSET 0.000000 20.427315 0.000000
					}
				}
				JOINT Hood
				{
					OFFSET 0.000000 18.754097 -10.431000
					CHANNELS 3 Xrotation Yrotation Zrotation
					JOINT Hood1
					{
						OFFSET 0.000000 -5.011002 -7.685901
						CHANNELS 3 Xrotation Yrotation Zrotation
						End Site
						{
							OFFSET 0.000000 9.175140 0.000000
						}
					}
				}
				JOINT LHoodieString
				{
					OFFSET 5.250500 16.397697 3.089900
					CHANNELS 3 Xrotation Yrotation Zrotation
					JOINT LHoodieString1
					{
						OFFSET 0.257700 -6.364304 3.694600
						CHANNELS 3 Xrotation Yrotation Zrotation
						JOINT LHoodieString2
						{
							OFFSET 0.000000 -9.643799 2.679100
							CHANNELS 3 Xrotation Yrotation Zrotation
							End Site
							{
								OFFSET 0.000000 10.009018 0.000000
							}
						}
					}
				}
				JOINT RHoodieString
				{
					OFFSET -5.250500 16.397697 3.089900
					CHANNELS 3 Xrotation Yrotation Zrotation
					JOINT RHoodieString1
					{
						OFFSET -0.257700 -6.364304 3.694600
						CHANNELS 3 Xrotation Yrotation Zrotation
						JOINT RHoodieString2
						{
							OFFSET 0.000000 -9.643799 2.679100
							CHANNELS 3 Xrotation Yrotation Zrotation
							End Site
							{
								OFFSET 0.000000 10.009018 0.000000
							}
						}
					}
				}
			}
			JOINT LBackpack_Strap
			{
				OFFSET 15.223200 -7.719803 -6.610900
				CHANNELS 3 Xrotation Yrotation Zrotation
				End Site
				{
					OFFSET 0.000000 16.040596 0.000000
				}
			}
			JOINT RBackpack_Strap
			{
				OFFSET -15.223000 -7.719803 -6.610900
				CHANNELS 3 Xrotation Yrotation Zrotation
				End Site
				{
					OFFSET 0.000000 16.040596 0.000000
				}
			}
		}
	}
	JOINT BoyFacialAnim_Joint
	{
		OFFSET 1.000000 -82.208099 -1.550900
		CHANNELS 3 Xrotation Yrotation Zrotation
		End Site
		{
			OFFSET 0.000000 30.012791 0.000000
		}
	}
}
MOTION
Frames: 4
Frame Time: 0.033333
-0.074715 95.412491 1.069302 -4.780620 2.543204 -1.849176 0.000000 -0.000000 -0.000000 -9.793696 11.049218 5.280929 14.408105 -6.172805 1.658288 42.824975 -2.063391 -6.082393 -0.000001 0.000001 -0.000001 -0.000001 0.000001 -0.000001 -0.000000 0.000001 -0.000000 -8.859559 -5.467592 -2.880959 14.630557 -3.148816 0.738231 40.744930 2.827963 8.656516 0.000002 -0.000000 -0.000000 0.000002 -0.000000 -0.000000 0.000000 0.000000 0.000000 -0.545219 -0.712772 -0.676669 0.265488 -0.519626 -0.252868 0.261664 -0.520514 -0.262271 15.136433 -0.813247 1.231286 -6.308172 -6.351171 3.760037 -0.000000 -0.000000 0.000000 -0.000000 -0.000000 0.000000 -0.000000 -0.000000 0.000000 9.208141 4.667260 55.121399 -48.879740 -6.592728 22.501553 0.000004 -27.274446 0.000008 -53.337897 0.980750 -2.226467 3.259068 0.466541 24.908914 16.514923 24.793269 -4.204093 -0.000000 0.000001 -0.000001 1.855398 4.858801 -53.916082 2.191669 5.041439 -46.970193 -0.000001 -0.000000 -0.000000 -0.578921 2.808317 -50.940736 2.694586 5.465922 -52.458564 0.000000 -0.000001 -0.000002 3.099273 5.755102 -55.277448 2.188898 5.038853 -46.938774 0.000000 0.000000 -0.000004 3.844045 7.448950 -36.407466 2.966968 1.575510 -55.375369 0.000001 -0.000000 -0.000000 0.000003 0.000001 0.000001 7.513346 -5.335181 -52.272568 -52.104641 9.094480 -16.679445 -0.000005 23.176241 0.000008 -49.591705 2.946386 12.478314 -14.734678 -11.553414 -21.746783 3.710452 -22.378515 -3.429294 -0.000001 -0.000002 -0.000001 -5.038454 -3.029976 70.185719 1.482007 -4.295864 38.052749 -0.000000 0.000000 0.000004 3.586177 -6.126847 67.127789 1.868505 -4.746930 42.952683 0.000000 0.000001 -0.000002 -0.778202 -3.986443 64.242287 1.615144 -4.460231 39.796722 -0.000000 0.000001 0.000004 3.783179 -6.200043 65.997427 0.882903 -3.396026 29.138980 0.000000 -0.000001 -0.000002 0.000002 -0.000001 -0.000001 -0.000001 0.000000 -0.000000 -0.000001 0.000000 -0.000000 -0.000001 0.000000 -0.000000 -0.000001 0.000000 -0.000000 -0.000001 0.000000 -0.000000 -0.000000 -0.000000 -0.000000 -0.000001 0.000000 -0.000000 -0.000001 0.000000 -0.000000 -0.000000 -0.000000 -0.000000 0.000000 0.000000 -0.000000 0.000000 0.000000 -0.000000 0.000000 -0.000000 -0.000000 
-0.052745 95.410034 1.022349 -4.744134 2.615054 -1.794173 -0.000000 0.000000 -0.000000 -9.674903 11.083386 5.188467 14.283407 -5.722315 1.571054 42.744106 -1.988201 -5.884704 0.000001 0.000001 0.000000 0.000001 0.000001 0.000000 -0.000000 0.000001 -0.000000 -8.781182 -5.468304 -2.909824 14.626543 -3.376078 0.796783 40.662076 2.752489 8.426780 0.000002 0.000001 -0.000001 0.000002 0.000001 -0.000001 -0.000000 0.000000 -0.000000 -0.556083 -0.719783 -0.672610 0.252780 -0.524977 -0.251248 0.248904 -0.525976 -0.260707 15.190016 -0.806686 1.182823 -6.230574 -6.295117 3.660102 -0.000000 0.000000 -0.000000 -0.000000 0.000000 -0.000000 -0.000000 0.000000 -0.000000 9.203696 4.678111 55.077826 -48.788178 -6.687749 22.436227 0.000003 -27.107629 -0.000003 -53.422932 0.884933 -2.212323 3.084550 -0.207089 24.795940 16.345261 24.513353 -4.097320 -0.000001 -0.000001 -0.000003 1.726227 4.768916 -54.056402 2.184708 5.034948 -46.891096 -0.000001 -0.000000 -0.000000 -0.619874 2.801068 -51.227457 2.674977 5.450858 -52.252300 -0.000000 -0.000000 -0.000001 3.133629 5.779272 -55.166840 2.182739 5.033121 -46.868639 -0.000001 -0.000000 -0.000000 3.923279 7.562740 -36.342989 2.927039 1.547745 -54.971121 -0.000000 0.000001 -0.000000 0.000002 -0.000000 0.000000 7.511857 -5.350246 -52.300842 -52.096038 9.289872 -16.688884 -0.000003 22.934170 -0.000007 -49.502592 2.982652 12.536128 -14.803262 -11.294438 -21.898205 3.710455 -22.378521 -3.429294 -0.000001 0.000001 -0.000000 -5.127148 -3.063624 70.530453 1.462205 -4.270515 37.787520 -0.000001 0.000000 0.000002 3.402252 -6.047835 67.024175 1.845854 -4.722574 42.678123 0.000001 0.000000 -0.000002 -0.942136 -3.868818 63.883859 1.585641 -4.424680 39.415874 -0.000001 0.000001 -0.000001 3.828562 -6.215829 65.184873 0.850696 -3.337687 28.590559 0.000000 -0.000001 0.000002 0.000001 -0.000001 -0.000001 -0.000000 0.000000 0.000000 -0.000000 0.000000 0.000000 -0.000000 0.000000 0.000000 -0.000000 0.000000 0.000000 -0.000000 0.000000 0.000000 0.000000 0.000000 -0.000000 -0.000000 0.000000 0.000000 -0.000000 0.000000 0.000000 0.000000 0.000000 -0.000000 0.000000 0.000000 0.000000 0.000000 0.000000 0.000000 -0.000000 0.000000 -0.000000 
-0.028707 95.406586 0.968675 -4.705246 2.684145 -1.744699 -0.000001 0.000000 0.000000 -9.573687 11.100523 5.099228 14.150871 -5.353713 1.500778 42.683795 -1.929406 -5.729241 -0.000001 -0.000001 0.000001 -0.000001 -0.000001 0.000001 0.000000 -0.000000 -0.000000 -8.730142 -5.472424 -2.931209 14.634099 -3.550250 0.845567 40.563438 2.667674 8.173402 0.000001 -0.000000 -0.000001 0.000001 -0.000000 -0.000001 0.000000 -0.000001 -0.000000 -0.563250 -0.726746 -0.667923 0.241391 -0.530275 -0.250173 0.237473 -0.531351 -0.259672 15.235606 -0.804851 1.153060 -6.197613 -6.256725 3.552202 0.000001 -0.000000 -0.000000 0.000001 -0.000000 -0.000000 0.000001 -0.000000 -0.000000 9.198961 4.692941 55.040762 -48.699225 -6.781195 22.380004 0.000008 -26.940817 0.000006 -53.510998 0.794923 -2.196776 2.942174 -0.752735 24.705732 16.209641 24.287678 -4.011892 0.000000 -0.000001 0.000001 1.620798 4.696333 -54.173645 2.178991 5.029611 -46.825864 -0.000001 -0.000000 -0.000000 -0.653648 2.794973 -51.456934 2.659233 5.438711 -52.086381 0.000000 -0.000001 0.000000 3.161695 5.799207 -55.070050 2.177559 5.028257 -46.809697 -0.000000 0.000001 -0.000004 3.988611 7.657260 -36.287122 2.894698 1.524942 -54.642466 -0.000000 0.000001 -0.000000 0.000001 -0.000001 -0.000001 7.510345 -5.363269 -52.318672 -52.078878 9.487326 -16.705430 0.000003 22.674471 -0.000009 -49.423747 3.031649 12.598207 -14.861173 -11.069653 -22.024322 3.710455 -22.378519 -3.429295 -0.000001 -0.000003 -0.000001 -5.194475 -3.095572 70.820749 1.447209 -4.251150 37.585773 -0.000002 -0.000001 0.000002 3.258147 -5.985711 66.960183 1.828283 -4.703492 42.464304 0.000001 0.000001 -0.000002 -1.074195 -3.772932 63.602100 1.562046 -4.395909 39.108936 -0.000000 0.000000 0.000002 3.865906 -6.231108 64.529927 0.824986 -3.290145 28.145772 -0.000000 -0.000001 0.000000 0.000000 -0.000000 0.000000 -0.000000 0.000000 0.000000 -0.000000 0.000000 0.000000 -0.000000 0.000000 0.000000 -0.000000 0.000000 0.000000 -0.000000 0.000000 0.000000 0.000000 0.000000 -0.000000 -0.000000 0.000000 0.000000 -0.000000 0.000000 0.000000 0.000000 0.000000 -0.000000 0.000000 0.000000 -0.000000 0.000000 0.000000 -0.000000 -0.000001 0.000000 0.000000 
-0.002066 95.404015 0.904307 -4.665377 2.742754 -1.712781 0.000000 0.000000 0.000000 -9.500606 11.085553 5.024655 14.004190 -5.184955 1.473694 42.687818 -1.908195 -5.668514 -0.000001 0.000000 0.000000 -0.000001 0.000000 0.000001 0.000000 0.000000 0.000000 -8.724585 -5.481125 -2.926012 14.670539 -3.615974 0.876599 40.434129 2.559308 7.860906 0.000001 0.000001 -0.000000 0.000001 0.000001 -0.000000 0.000000 0.000000 -0.000000 -0.561998 -0.733684 -0.659952 0.233935 -0.535461 -0.250159 0.229990 -0.536557 -0.259668 15.265321 -0.814152 1.168013 -6.254236 -6.258297 3.420873 0.000001 -0.000000 0.000000 0.000001 -0.000000 0.000000 0.000001 -0.000000 0.000000 9.194427 4.711707 55.017758 -48.625667 -6.852683 22.347331 0.000002 -26.817025 -0.000005 -53.595900 0.733532 -2.164894 2.877541 -0.999284 24.665276 16.151594 24.190443 -3.975269 0.000001 0.000004 0.000001 1.571611 4.663282 -54.245052 2.176210 5.027015 -46.794019 -0.000000 0.000000 -0.000002 -0.668728 2.793615 -51.572416 2.652212 5.433240 -52.012297 0.000001 -0.000001 -0.000002 3.176090 5.809578 -55.008889 2.175021 5.025911 -46.780533 -0.000001 0.000001 -0.000002 4.023437 7.708575 -36.251523 2.880060 1.514523 -54.493151 0.000000 0.000000 -0.000000 0.000001 0.000000 0.000001 7.508699 -5.372840 -52.316230 -52.059295 9.657826 -16.725342 0.000003 22.437306 -0.000001 -49.363249 3.091033 12.647075 -14.895046 -10.933778 -22.091185 3.710452 -22.378519 -3.429294 0.000001 0.000000 0.000000 -5.211117 -3.119282 70.972789 1.443258 -4.246015 37.532426 -0.000000 0.000001 0.000002 3.203872 -5.962860 66.966241 1.822202 -4.696873 42.390135 0.000000 0.000001 -0.000002 -1.134939 -3.730263 63.490665 1.551695 -4.383186 38.973790 -0.000000 0.000001 0.000002 3.887684 -6.241030 64.232574 0.813497 -3.268630 27.944935 -0.000000 -0.000000 -0.000002 0.000001 -0.000001 -0.000000 -0.000000 0.000000 0.000000 -0.000000 0.000000 0.000000 -0.000000 0.000000 0.000000 -0.000000 0.000000 0.000000 -0.000000 0.000000 0.000000 0.000000 0.000000 -0.000000 -0.000000 0.000000 0.000000 -0.000000 0.000000 0.000000 0.000000 0.000000 -0.000000 -0.000000 -0.000000 -0.000000 -0.000000 -0.000000 -0.000000 0.000000 0.000000 0.000000 
